<?xml version="1.0"?>
<svg xmlns="http://www.w3.org/2000/svg" id="Outline" viewBox="0 0 512 512" width="512" height="512"><path d="M326.4,408c-16.762,0-30.4-10.767-30.4-24a8,8,0,0,0-16,0c0,22.056,20.815,40,46.4,40H328v16a8,8,0,0,0,16,0V424h1.6c25.585,0,46.4-17.944,46.4-40s-20.815-40-46.4-40H344V296h1.6c16.762,0,30.4,10.767,30.4,24a8,8,0,0,0,16,0c0-22.056-20.815-40-46.4-40H344V264.615a8,8,0,0,0-16,0V280h-1.6c-25.585,0-46.4,17.944-46.4,40s20.815,40,46.4,40H328v48ZM344,360h1.6c16.762,0,30.4,10.767,30.4,24s-13.638,24-30.4,24H344Zm-17.6-16c-16.762,0-30.4-10.767-30.4-24s13.638-24,30.4-24H328v48Z"/><path d="M36.115,342.993C39.129,344.668,110.769,384,184,384c3.793,0,7.651-.1,11.527-.285C210.012,447.909,267.492,496,336,496c79.4,0,144-64.6,144-144S415.4,208,336,208a143.562,143.562,0,0,0-40.2,5.717A145.523,145.523,0,0,0,223.44,165.56a80,80,0,1,0-78.977-.056A143.766,143.766,0,0,0,76.187,209C47.692,241.19,32,286.292,32,336A8,8,0,0,0,36.115,342.993ZM336,224A128,128,0,1,1,208,352,128.146,128.146,0,0,1,336,224ZM120,96a64,64,0,1,1,64,64A64.072,64.072,0,0,1,120,96ZM88.167,219.609C113.062,191.487,147.1,176,184,176c37.225,0,70.827,15.354,95.7,43.464a143.981,143.981,0,0,0-86.832,148.359c-2.984.116-5.949.177-8.873.177-59.383,0-119.8-28.588-135.947-36.81C49.017,287.315,63.175,247.839,88.167,219.609Z"/></svg>
